<svg xmlns="http://www.w3.org/2000/svg" xmlns:xlink="http://www.w3.org/1999/xlink" width="500" height="500" viewBox="0 0 500 500">
  <defs>
    <clipPath id="clip-pattern">
      <rect width="500" height="500"/>
    </clipPath>
  </defs>
  <g id="pattern" clip-path="url(#clip-pattern)">
    <g id="Pattern-2" data-name="Pattern" opacity="1.0" style="isolation: isolate">
      <g id="Group_64" data-name="Group 64">
        <g id="Group_7" data-name="Group 7">
          <path id="Path_4" data-name="Path 4" d="M500,0h0V500H0V0H500Z" fill="none"/>
          <g id="Group_6" data-name="Group 6">
            <path id="Path_5" data-name="Path 5" d="M500,0h0V500H0V0H500Z" fill="none" stroke="rgba(0,0,0,0)" stroke-width="1"/>
          </g>
        </g>
        <g id="Group_9" data-name="Group 9" transform="translate(307.641 1.296)">
          <path id="Path_6" data-name="Path 6" d="M276.5,32c.9,0,25.5-14.2,26-15,.4-.6-13.8-9.2-25.7-15.7-.5-.2-.8,6.6-.8,15.1C276,25,276.2,32,276.5,32Z" transform="translate(-276 -1.296)" fill="#2c2f33" opacity="0.57"/>
          <g id="Group_8" data-name="Group 8">
            <path id="Path_7" data-name="Path 7" d="M276.5,32c.9,0,25.5-14.2,26-15,.4-.6-13.8-9.2-25.7-15.7-.5-.2-.8,6.6-.8,15.1C276,25,276.2,32,276.5,32Z" transform="translate(-276 -1.296)" fill="#2c2f33" opacity="0.57"/>
          </g>
        </g>
        <g id="Group_11" data-name="Group 11" transform="translate(479.5 5.585)">
          <path id="Path_8" data-name="Path 8" d="M429.5,24l9.4,9.4c5.2,5.2,9.8,9.3,10.3,9,.4-.3.8-2.1.8-4s-.4-3.3-.8-3c-.5.3-3.5-2.2-6.7-5.4q-.585-.6-5.9-6,5.31-5.4,5.9-6c3.2-3.2,6.2-5.7,6.7-5.4.4.3.8-1.1.8-3s-.4-3.7-.8-4c-.5-.3-5.1,3.8-10.3,9Z" transform="translate(-429.5 -5.585)" fill="#2c2f33" opacity="0.57"/>
          <g id="Group_10" data-name="Group 10">
            <path id="Path_9" data-name="Path 9" d="M429.5,24l9.4,9.4c5.2,5.2,9.8,9.3,10.3,9,.4-.3.8-2.1.8-4s-.4-3.3-.8-3c-.5.3-3.5-2.2-6.7-5.4q-.585-.6-5.9-6,5.31-5.4,5.9-6c3.2-3.2,6.2-5.7,6.7-5.4.4.3.8-1.1.8-3s-.4-3.7-.8-4c-.5-.3-5.1,3.8-10.3,9Z" transform="translate(-429.5 -5.585)" fill="#2c2f33" opacity="0.57"/>
          </g>
        </g>
        <g id="Group_13" data-name="Group 13" transform="translate(0 6.5)">
          <path id="Path_10" data-name="Path 10" d="M5.2,18.7q.525.525,5.2,5.3-4.68,4.77-5.2,5.3C.9,33.6,0,35.2,0,38v3.5l8.7-8.8L17.5,24,8.7,15.3,0,6.5V10Q.9,14.4,5.2,18.7Z" transform="translate(0 -6.5)" fill="#2c2f33" opacity="0.57"/>
          <g id="Group_12" data-name="Group 12">
            <path id="Path_11" data-name="Path 11" d="M5.2,18.7q.525.525,5.2,5.3-4.68,4.77-5.2,5.3C.9,33.6,0,35.2,0,38v3.5l8.7-8.8L17.5,24,8.7,15.3,0,6.5V10Q.9,14.4,5.2,18.7Z" transform="translate(0 -6.5)" fill="#2c2f33" opacity="0.57"/>
          </g>
        </g>
        <g id="Group_15" data-name="Group 15" transform="translate(127.2 42)">
          <path id="Path_12" data-name="Path 12" d="M114.4,73c.2,0,6.6-3.6,14.1-7.9q1.365-.795,13.7-7.9-6.66-3.78-7.4-4.2c-4-2.4-9.9-5.8-13.1-7.6-3.2-1.9-6.2-3.4-6.7-3.4s-.9,7-.9,15.5C114,66,114.2,73,114.4,73Z" transform="translate(-114.073 -42)" fill="#2c2f33" opacity="0.57"/>
          <g id="Group_14" data-name="Group 14">
            <path id="Path_13" data-name="Path 13" d="M114.4,73c.2,0,6.6-3.6,14.1-7.9q1.365-.795,13.7-7.9-6.66-3.78-7.4-4.2c-4-2.4-9.9-5.8-13.1-7.6-3.2-1.9-6.2-3.4-6.7-3.4s-.9,7-.9,15.5C114,66,114.2,73,114.4,73Z" transform="translate(-114.073 -42)" fill="#2c2f33" opacity="0.57"/>
          </g>
        </g>
        <g id="Group_17" data-name="Group 17" transform="translate(222.949 45.15)">
          <path id="Path_14" data-name="Path 14" d="M214.9,45.28l.62.13.64.18.67.22.71.27.76.32,1.99,1.01,1.73,1.22,1.46,1.39,1.21,1.54.95,1.66.68,1.75.42,1.82.16,1.85-.1,1.86-.37,1.84-.63,1.79-.89,1.72-1.16,1.61-1.42,1.48-1.68,1.33L218.7,71.4l-.99.43-.98.34-.96.26-.96.18-.95.1h-.94l-.93-.07-.93-.17-.92-.24-.91-.34-.91-.43-.91-.51-.91-.6-.9-.69-.9-.79-.9-.87-.59-.59-.52-.55-.47-.52-.41-.48-.35-.47-.31-.45-.27-.44-.22-.45-.18-.46-.15-.47-.11-.5-.09-.53-.06-.57-.04-.61-.02-.68L200,59.5l.03-1.12.09-1.08.14-1.03.21-.99.26-.94.32-.9.39-.86.44-.81.49-.76.56-.72.61-.68.68-.63.73-.59.79-.54.85-.5.91-.45.87-.39.8-.34.75-.29.7-.24.67-.19.63-.15.61-.1.6-.05h.58l.59.04Zm-4.75,5.84-1.29.75-1.2,1.03-1.06,1.3-1.25,2.57-.31,2.53.5,2.39,1.16,2.12,1.68,1.74,2.05,1.25,2.29.64,2.39-.07,2.34-.91,2.15-1.86.81-1.05.64-1.08.46-1.12.29-1.14.11-1.15-.06-1.14-.25-1.13-.42-1.11-.6-1.06-.78-1.02-1.25-1.18-1.34-.91-1.4-.63-1.43-.35-1.44-.08-1.42.2Z" transform="translate(-200 -45.15)" fill="#2c2f33" opacity="0.57"/>
          <g id="Group_16" data-name="Group 16">
            <path id="Path_15" data-name="Path 15" d="M214.9,45.28l.62.13.64.18.67.22.71.27.76.32,1.99,1.01,1.73,1.22,1.46,1.39,1.21,1.54.95,1.66.68,1.75.42,1.82.16,1.85-.1,1.86-.37,1.84-.63,1.79-.89,1.72-1.16,1.61-1.42,1.48-1.68,1.33L218.7,71.4l-.99.43-.98.34-.96.26-.96.18-.95.1h-.94l-.93-.07-.93-.17-.92-.24-.91-.34-.91-.43-.91-.51-.91-.6-.9-.69-.9-.79-.9-.87-.59-.59-.52-.55-.47-.52-.41-.48-.35-.47-.31-.45-.27-.44-.22-.45-.18-.46-.15-.47-.11-.5-.09-.53-.06-.57-.04-.61-.02-.68L200,59.5l.03-1.12.09-1.08.14-1.03.21-.99.26-.94.32-.9.39-.86.44-.81.49-.76.56-.72.61-.68.68-.63.73-.59.79-.54.85-.5.91-.45.87-.39.8-.34.75-.29.7-.24.67-.19.63-.15.61-.1.6-.05h.58l.59.04Zm-4.75,5.84-1.29.75-1.2,1.03-1.06,1.3-1.25,2.57-.31,2.53.5,2.39,1.16,2.12,1.68,1.74,2.05,1.25,2.29.64,2.39-.07,2.34-.91,2.15-1.86.81-1.05.64-1.08.46-1.12.29-1.14.11-1.15-.06-1.14-.25-1.13-.42-1.11-.6-1.06-.78-1.02-1.25-1.18-1.34-.91-1.4-.63-1.43-.35-1.44-.08-1.42.2Z" transform="translate(-200 -45.15)" fill="#2c2f33" opacity="0.57"/>
          </g>
        </g>
        <g id="Group_19" data-name="Group 19" transform="translate(407.84 59)">
          <path id="Path_16" data-name="Path 16" d="M363,86V59h27V86Zm5-5h17V64H368Z" transform="translate(-363 -59)" fill="#2c2f33" opacity="0.57"/>
          <g id="Group_18" data-name="Group 18">
            <path id="Path_17" data-name="Path 17" d="M363,86V59h27V86Zm5-5h17V64H368Z" transform="translate(-363 -59)" fill="#2c2f33" opacity="0.57"/>
          </g>
        </g>
        <g id="Group_21" data-name="Group 21" transform="translate(46.5 86.309)">
          <path id="Path_18" data-name="Path 18" d="M52.7,83.6l3.7,2.8-4.9,4.3-4.9,4.2,2.5,1.9c1.3,1.1,3.5,2.9,4.9,4,.17.13,1,.8,2.5,2-1.5,1.2-2.33,1.87-2.5,2-1.4,1.1-3.6,2.9-5,4-.17.13-1,.8-2.5,2,1.5,1.2,2.33,1.87,2.5,2,6.5,5.1,7.5,6.2,6.4,6.9-.6.5-2.3,1.8-3.9,3.1-2.7,2.1-2.7,2.3-1,4.2s1.8,1.8,7.4-2.7a49.562,49.562,0,0,0,5.9-5.3c.1-.4-1.8-2.2-4.2-4.1-2.5-1.9-4.6-3.7-4.6-4s2-2,4.5-3.9,4.5-3.6,4.5-3.9-2.1-2.4-4.6-4.6l-4.7-4.1L59.3,91c2.6-1.9,4.7-3.8,4.7-4.2C64,86,53.2,77,52.1,77c-.3,0-1.2.9-1.8,1.9C49.2,80.6,49.6,81.2,52.7,83.6Z" transform="translate(-46.5 -77)" fill="#2c2f33" opacity="0.57"/>
          <g id="Group_20" data-name="Group 20">
            <path id="Path_19" data-name="Path 19" d="M52.7,83.6l3.7,2.8-4.9,4.3-4.9,4.2,2.5,1.9c1.3,1.1,3.5,2.9,4.9,4,.17.13,1,.8,2.5,2-1.5,1.2-2.33,1.87-2.5,2-1.4,1.1-3.6,2.9-5,4-.17.13-1,.8-2.5,2,1.5,1.2,2.33,1.87,2.5,2,6.5,5.1,7.5,6.2,6.4,6.9-.6.5-2.3,1.8-3.9,3.1-2.7,2.1-2.7,2.3-1,4.2s1.8,1.8,7.4-2.7a49.562,49.562,0,0,0,5.9-5.3c.1-.4-1.8-2.2-4.2-4.1-2.5-1.9-4.6-3.7-4.6-4s2-2,4.5-3.9,4.5-3.6,4.5-3.9-2.1-2.4-4.6-4.6l-4.7-4.1L59.3,91c2.6-1.9,4.7-3.8,4.7-4.2C64,86,53.2,77,52.1,77c-.3,0-1.2.9-1.8,1.9C49.2,80.6,49.6,81.2,52.7,83.6Z" transform="translate(-46.5 -77)" fill="#2c2f33" opacity="0.57"/>
          </g>
        </g>
        <g id="Group_23" data-name="Group 23" transform="translate(280.074 89.485)">
          <path id="Path_20" data-name="Path 20" d="M251,107.5c0,.3,7,.5,15.5.5s15.5-.2,15.5-.5c0-.5-14.8-26.6-15.3-27.2-.1-.1-3.7,5.9-7.9,13.2C254.5,100.9,251,107.1,251,107.5Z" transform="translate(-251 -80.299)" fill="#2c2f33" opacity="0.57"/>
          <g id="Group_22" data-name="Group 22">
            <path id="Path_21" data-name="Path 21" d="M251,107.5c0,.3,7,.5,15.5.5s15.5-.2,15.5-.5c0-.5-14.8-26.6-15.3-27.2-.1-.1-3.7,5.9-7.9,13.2C254.5,100.9,251,107.1,251,107.5Z" transform="translate(-251 -80.299)" fill="#2c2f33" opacity="0.57"/>
          </g>
        </g>
        <g id="Group_25" data-name="Group 25" transform="translate(485 104.886)">
          <path id="Path_22" data-name="Path 22" d="M435.9,99c.5,0,2.3,1.2,4,2.6,2.3,1.9,3.1,3.4,3.1,5.9,0,3.8-3.3,8.5-6.1,8.5-1.4,0-1.9.7-1.9,2.9,0,2.9.1,2.9,3.3,2a17.405,17.405,0,0,0,6.5-4.4c2.6-2.9,3.2-4.3,3.2-8.1,0-5.8-2.8-10.6-7.4-12.8s-5.6-2-5.6.9C435,97.9,435.4,99,435.9,99Z" transform="translate(-435 -94.115)" fill="#2c2f33" opacity="0.57"/>
          <g id="Group_24" data-name="Group 24">
            <path id="Path_23" data-name="Path 23" d="M435.9,99c.5,0,2.3,1.2,4,2.6,2.3,1.9,3.1,3.4,3.1,5.9,0,3.8-3.3,8.5-6.1,8.5-1.4,0-1.9.7-1.9,2.9,0,2.9.1,2.9,3.3,2a17.405,17.405,0,0,0,6.5-4.4c2.6-2.9,3.2-4.3,3.2-8.1,0-5.8-2.8-10.6-7.4-12.8s-5.6-2-5.6.9C435,97.9,435.4,99,435.9,99Z" transform="translate(-435 -94.115)" fill="#2c2f33" opacity="0.57"/>
          </g>
        </g>
        <g id="Group_27" data-name="Group 27" transform="translate(139.735 127.515)">
          <path id="Path_24" data-name="Path 24" d="M144.2,114.19l.18.13.22.18.28.23.32.28.37.33.41.37.44.41.49.45.52.49.55.53.58.55.6.59.64.61.65.65.68.66.69.69.72.7.72.72.74.74,9.5,9.5L144,152.5l-19-19.2,9.3-9.5.71-.75.7-.73.69-.72.67-.7.65-.67.64-.65.61-.63.59-.59.56-.57.54-.54.5-.5.47-.46.44-.42.39-.39.36-.34.32-.3.27-.25.22-.2.18-.15.12-.1.07-.04.07.02ZM132.5,133l12,12,11.6-11.6-6-6.1-6-6-5.8,5.9Z" transform="translate(-125 -114.1)" fill="#2c2f33" opacity="0.57"/>
          <g id="Group_26" data-name="Group 26">
            <path id="Path_25" data-name="Path 25" d="M144.2,114.19l.18.13.22.18.28.23.32.28.37.33.41.37.44.41.49.45.52.49.55.53.58.55.6.59.64.61.65.65.68.66.69.69.72.7.72.72.74.74,9.5,9.5L144,152.5l-19-19.2,9.3-9.5.71-.75.7-.73.69-.72.67-.7.65-.67.64-.65.61-.63.59-.59.56-.57.54-.54.5-.5.47-.46.44-.42.39-.39.36-.34.32-.3.27-.25.22-.2.18-.15.12-.1.07-.04.07.02ZM132.5,133l12,12,11.6-11.6-6-6.1-6-6-5.8,5.9Z" transform="translate(-125 -114.1)" fill="#2c2f33" opacity="0.57"/>
          </g>
        </g>
        <g id="Group_29" data-name="Group 29" transform="translate(377.21 159.481)">
          <path id="Path_26" data-name="Path 26" d="M353.87,143.18l.98.13.95.17.91.22.86.28.8.33.73.39.31.21.32.24.33.28.34.31.35.33.35.37.34.38.35.4.34.43.33.43.32.44.3.45.29.46.26.46.25.46.22.45.47,1.02.38,1,.3.99.22.96.13.96.05.94-.03.93-.12.92-.2.92-.29.91-.37.91-.46.9-.54.91-.63.9-.71.91-.8.92-.57.62-.52.54-.48.48-.45.41-.43.36-.43.3-.44.25-.45.2-.49.17-.53.12-.58.1-.65.06-.72.05-.82.02-.91.02h-2.06l-.91-.02-.82-.02-.72-.05-.65-.06-.58-.1-.53-.12-.48-.17-.46-.2-.44-.25-.43-.3-.43-.36-.45-.41-.48-.48-.52-.54-.57-.62-.8-.92-.71-.91-.63-.9-.54-.91-.46-.9-.37-.91-.29-.91-.2-.92-.12-.92-.03-.93.05-.94.13-.96.22-.96.3-.99.38-1,.47-1.02.22-.45.24-.46.26-.46.28-.45.3-.45.31-.45.31-.43.33-.41.33-.4.33-.38.33-.35.33-.33.32-.3.32-.26.3-.23.29-.19.71-.39.79-.34.85-.28.9-.24.94-.19.97-.14,1-.08,1-.04,1.01.02Zm-3.33,4.91-.66.11-.63.16-.59.21-.56.27-.55.33-.52.38-.52.44-.51.51-1.72,2.45-.74,2.52.11,2.47.83,2.28,1.43,1.95,1.9,1.51,2.25.93,2.46.22,2.56-.63,2.52-1.6,1-.99.79-1.1.57-1.19.36-1.25.14-1.3-.07-1.31-.28-1.3-.49-1.28-.71-1.23L358,150.5l-.51-.51-.52-.44-.52-.38-.55-.33-.56-.27-.59-.21-.63-.16-.66-.11-.71-.07L352,148l-.75.02Z" transform="translate(-338.35 -143.1)" fill="#2c2f33" opacity="0.57"/>
          <g id="Group_28" data-name="Group 28">
            <path id="Path_27" data-name="Path 27" d="M353.87,143.18l.98.13.95.17.91.22.86.28.8.33.73.39.31.21.32.24.33.28.34.31.35.33.35.37.34.38.35.4.34.43.33.43.32.44.3.45.29.46.26.46.25.46.22.45.47,1.02.38,1,.3.99.22.96.13.96.05.94-.03.93-.12.92-.2.92-.29.91-.37.91-.46.9-.54.91-.63.9-.71.91-.8.92-.57.62-.52.54-.48.48-.45.41-.43.36-.43.3-.44.25-.45.2-.49.17-.53.12-.58.1-.65.06-.72.05-.82.02-.91.02h-2.06l-.91-.02-.82-.02-.72-.05-.65-.06-.58-.1-.53-.12-.48-.17-.46-.2-.44-.25-.43-.3-.43-.36-.45-.41-.48-.48-.52-.54-.57-.62-.8-.92-.71-.91-.63-.9-.54-.91-.46-.9-.37-.91-.29-.91-.2-.92-.12-.92-.03-.93.05-.94.13-.96.22-.96.3-.99.38-1,.47-1.02.22-.45.24-.46.26-.46.28-.45.3-.45.31-.45.31-.43.33-.41.33-.4.33-.38.33-.35.33-.33.32-.3.32-.26.3-.23.29-.19.71-.39.79-.34.85-.28.9-.24.94-.19.97-.14,1-.08,1-.04,1.01.02Zm-3.33,4.91-.66.11-.63.16-.59.21-.56.27-.55.33-.52.38-.52.44-.51.51-1.72,2.45-.74,2.52.11,2.47.83,2.28,1.43,1.95,1.9,1.51,2.25.93,2.46.22,2.56-.63,2.52-1.6,1-.99.79-1.1.57-1.19.36-1.25.14-1.3-.07-1.31-.28-1.3-.49-1.28-.71-1.23L358,150.5l-.51-.51-.52-.44-.52-.38-.55-.33-.56-.27-.59-.21-.63-.16-.66-.11-.71-.07L352,148l-.75.02Z" transform="translate(-338.35 -143.1)" fill="#2c2f33" opacity="0.57"/>
          </g>
        </g>
        <g id="Group_31" data-name="Group 31" transform="translate(459 182.724)">
          <path id="Path_28" data-name="Path 28" d="M428,183.5l-9.5-.3-9.5-.3V189h24V164h-2.5c-2.5,0-2.5,0-2.5,9.7Z" transform="translate(-409 -164)" fill="#2c2f33" opacity="0.57"/>
          <g id="Group_30" data-name="Group 30">
            <path id="Path_29" data-name="Path 29" d="M428,183.5l-9.5-.3-9.5-.3V189h24V164h-2.5c-2.5,0-2.5,0-2.5,9.7Z" transform="translate(-409 -164)" fill="#2c2f33" opacity="0.57"/>
          </g>
        </g>
        <g id="Group_33" data-name="Group 33" transform="translate(22.9 205.118)">
          <path id="Path_30" data-name="Path 30" d="M36.8,210.8l-13.3-.3-.3-13.3L22.9,184H50v27.1Zm-8.6-13.6.3,8.3,8.3.3,8.2.3V189H27.9Z" transform="translate(-22.9 -184)" fill="#2c2f33" opacity="0.57"/>
          <g id="Group_32" data-name="Group 32">
            <path id="Path_31" data-name="Path 31" d="M36.8,210.8l-13.3-.3-.3-13.3L22.9,184H50v27.1Zm-8.6-13.6.3,8.3,8.3.3,8.2.3V189H27.9Z" transform="translate(-22.9 -184)" fill="#2c2f33" opacity="0.57"/>
          </g>
        </g>
        <g id="Group_35" data-name="Group 35" transform="translate(112.068 223.502)">
          <path id="Path_32" data-name="Path 32" d="M100.1,214.6c1.7,2.1,3,1.7,6.1-1.9.19-.21,1.12-1.28,2.8-3.2l4,4.5,4,4.5q3.42-3.87,3.8-4.3c2-2.3,4-4.2,4.3-4.2.4,0,2.2,2,4.2,4.5q.345.465,3.5,4.6l4.3-5.1,4.2-5c1.5,2.1,2.33,3.27,2.5,3.5,2.7,3.7,4.3,4.3,6.1,2.1.9-1,0-2.7-3.8-7.5l-5-6.2-4,5-3.9,5.1-4-5-4-5-4.1,4.8-4.1,4.7-4.2-4.7-4.3-4.7-4.8,6.1Q99.2,213.605,100.1,214.6Z" transform="translate(-99.95 -200.9)" fill="#2c2f33" opacity="0.57"/>
          <g id="Group_34" data-name="Group 34">
            <path id="Path_33" data-name="Path 33" d="M100.1,214.6c1.7,2.1,3,1.7,6.1-1.9.19-.21,1.12-1.28,2.8-3.2l4,4.5,4,4.5q3.42-3.87,3.8-4.3c2-2.3,4-4.2,4.3-4.2.4,0,2.2,2,4.2,4.5q.345.465,3.5,4.6l4.3-5.1,4.2-5c1.5,2.1,2.33,3.27,2.5,3.5,2.7,3.7,4.3,4.3,6.1,2.1.9-1,0-2.7-3.8-7.5l-5-6.2-4,5-3.9,5.1-4-5-4-5-4.1,4.8-4.1,4.7-4.2-4.7-4.3-4.7-4.8,6.1Q99.2,213.605,100.1,214.6Z" transform="translate(-99.95 -200.9)" fill="#2c2f33" opacity="0.57"/>
          </g>
        </g>
        <g id="Group_37" data-name="Group 37" transform="translate(370.069 234.281)">
          <path id="Path_34" data-name="Path 34" d="M330.6,224.7c1.7,1.3,2.2,1.1,5-2.2q.315-.36,3.2-3.6l3.7,4.6c2.1,2.5,4.1,4.5,4.5,4.5.3,0,2.2-2.1,4-4.7q.345-.465,3.4-4.6l4.3,4.9,4.3,4.9c1.26-1.5,1.96-2.33,2.1-2.5,1.2-1.4,3-3.6,4.1-5,1.2-1.5,2.2-2,2.6-1.4s1.7,2.3,2.9,3.8c2,2.5,2.4,2.6,4.3,1.3,2.2-1.5,2.5-1-7.8-13.7-.2-.3-.9.2-1.5,1.1-.7.8-2.5,3.1-4,5l-2.8,3.4c-1.2-1.5-1.87-2.33-2-2.5-1.2-1.4-3-3.6-4.1-5-.13-.16-.76-.96-1.9-2.4q-2.43,3.06-2.7,3.4c-1.5,1.9-3.3,4.1-3.9,4.9-1.1,1.4-1.8,1-5.6-3.3l-4.3-4.9-4.9,6.3Q328.7,223.3,330.6,224.7Z" transform="translate(-330.06 -210.6)" fill="#2c2f33" opacity="0.57"/>
          <g id="Group_36" data-name="Group 36">
            <path id="Path_35" data-name="Path 35" d="M330.6,224.7c1.7,1.3,2.2,1.1,5-2.2q.315-.36,3.2-3.6l3.7,4.6c2.1,2.5,4.1,4.5,4.5,4.5.3,0,2.2-2.1,4-4.7q.345-.465,3.4-4.6l4.3,4.9,4.3,4.9c1.26-1.5,1.96-2.33,2.1-2.5,1.2-1.4,3-3.6,4.1-5,1.2-1.5,2.2-2,2.6-1.4s1.7,2.3,2.9,3.8c2,2.5,2.4,2.6,4.3,1.3,2.2-1.5,2.5-1-7.8-13.7-.2-.3-.9.2-1.5,1.1-.7.8-2.5,3.1-4,5l-2.8,3.4c-1.2-1.5-1.87-2.33-2-2.5-1.2-1.4-3-3.6-4.1-5-.13-.16-.76-.96-1.9-2.4q-2.43,3.06-2.7,3.4c-1.5,1.9-3.3,4.1-3.9,4.9-1.1,1.4-1.8,1-5.6-3.3l-4.3-4.9-4.9,6.3Q328.7,223.3,330.6,224.7Z" transform="translate(-330.06 -210.6)" fill="#2c2f33" opacity="0.57"/>
          </g>
        </g>
        <g id="Group_39" data-name="Group 39" transform="translate(258.757 244.795)">
          <path id="Path_36" data-name="Path 36" d="M250.5,257l-19-19,19-19,19,19Zm-.43-29.83-.33.2-.38.28-.45.35-.49.4-.55.46-.58.51-.61.56-.65.6-.66.63-.68.66-.69.68-5.4,5.5,5.9,6,6,6,12-12-5.5-5.5-.69-.68-.68-.66-.66-.63-.65-.6-.61-.56-.58-.51-.55-.46-.49-.4-.45-.35-.38-.28-.33-.2-.25-.13-.18-.04-.18.04Z" transform="translate(-231.5 -219)" fill="#2c2f33" opacity="0.57"/>
          <g id="Group_38" data-name="Group 38">
            <path id="Path_37" data-name="Path 37" d="M250.5,257l-19-19,19-19,19,19Zm-.43-29.83-.33.2-.38.28-.45.35-.49.4-.55.46-.58.51-.61.56-.65.6-.66.63-.68.66-.69.68-5.4,5.5,5.9,6,6,6,12-12-5.5-5.5-.69-.68-.68-.66-.66-.63-.65-.6-.61-.56-.58-.51-.55-.46-.49-.4-.45-.35-.38-.28-.33-.2-.25-.13-.18-.04-.18.04Z" transform="translate(-231.5 -219)" fill="#2c2f33" opacity="0.57"/>
          </g>
        </g>
        <g id="Group_41" data-name="Group 41" transform="translate(168.438 269.831)">
          <path id="Path_38" data-name="Path 38" d="M166.1,242.14l.91.14.9.19.89.25.87.31.84.36.81.43.78.48.73.51.68.53.62.53.57.55.52.56.47.58.43.61.37.64.33.66.29.7.24.74.21.78.16.82.12.87.09.92.05.97.02,1.03-.01.68-.01.63-.04.58-.05.54-.07.51-.09.48-.11.46-.14.43-.17.43-.2.41-.23.42-.26.41-.3.43-.34.44-.38.45-.43.49-.47.51-.48.52-.46.47-.43.43-.43.38-.41.35-.41.3-.41.27-.42.24-.43.2-.44.18-.47.16-.49.14-.52.11-.56.11-.6.09-.64.08-.7.07-1.08.08-1.03.02-1.01-.03-.96-.08-.93-.14-.89-.19-.86-.24-.82-.3-.78-.35-.75-.41-.72-.46-.68-.52-.65-.56-.61-.63-.58-.67-.54-.74-.51-.78-.61-1.1-.49-1.14-.37-1.18-.26-1.2-.14-1.21-.03-1.23.08-1.22.19-1.22.29-1.2.39-1.17.5-1.14.59-1.1.69-1.05.78-1,.87-.92.97-.85,1.05-.77.74-.45.79-.39.81-.33.85-.27.87-.22.89-.15.9-.1.92-.04.91.02Zm-3.66,5.38-1.2.58-1.18.8-1.16,1-.88.97-.71.93-.54.92-.38.92-.21.92-.06.96.11.99.26,1.05.43,1.13.58,1.21.49.89.5.77.54.64.6.53.66.42.74.33.83.24.95.16,1.08.09,1.21.03,1.99-.27,1.76-.75,1.49-1.15,1.18-1.47.86-1.7.48-1.85.09-1.93-.34-1.91-.81-1.82-1.3-1.65-1.05-.94-1.1-.72-1.14-.5-1.17-.28-1.19-.06-1.2.15Z" transform="translate(-151.1 -242.05)" fill="#2c2f33" opacity="0.57"/>
          <g id="Group_40" data-name="Group 40">
            <path id="Path_39" data-name="Path 39" d="M166.1,242.14l.91.14.9.19.89.25.87.31.84.36.81.43.78.48.73.51.68.53.62.53.57.55.52.56.47.58.43.61.37.64.33.66.29.7.24.74.21.78.16.82.12.87.09.92.05.97.02,1.03-.01.68-.01.63-.04.58-.05.54-.07.51-.09.48-.11.46-.14.43-.17.43-.2.41-.23.42-.26.41-.3.43-.34.44-.38.45-.43.49-.47.51-.48.52-.46.47-.43.43-.43.38-.41.35-.41.3-.41.27-.42.24-.43.2-.44.18-.47.16-.49.14-.52.11-.56.11-.6.09-.64.08-.7.07-1.08.08-1.03.02-1.01-.03-.96-.08-.93-.14-.89-.19-.86-.24-.82-.3-.78-.35-.75-.41-.72-.46-.68-.52-.65-.56-.61-.63-.58-.67-.54-.74-.51-.78-.61-1.1-.49-1.14-.37-1.18-.26-1.2-.14-1.21-.03-1.23.08-1.22.19-1.22.29-1.2.39-1.17.5-1.14.59-1.1.69-1.05.78-1,.87-.92.97-.85,1.05-.77.74-.45.79-.39.81-.33.85-.27.87-.22.89-.15.9-.1.92-.04.91.02Zm-3.66,5.38-1.2.58-1.18.8-1.16,1-.88.97-.71.93-.54.92-.38.92-.21.92-.06.96.11.99.26,1.05.43,1.13.58,1.21.49.89.5.77.54.64.6.53.66.42.74.33.83.24.95.16,1.08.09,1.21.03,1.99-.27,1.76-.75,1.49-1.15,1.18-1.47.86-1.7.48-1.85.09-1.93-.34-1.91-.81-1.82-1.3-1.65-1.05-.94-1.1-.72-1.14-.5-1.17-.28-1.19-.06-1.2.15Z" transform="translate(-151.1 -242.05)" fill="#2c2f33" opacity="0.57"/>
          </g>
        </g>
        <g id="Group_43" data-name="Group 43" transform="translate(462 269.855)">
          <path id="Path_40" data-name="Path 40" d="M412,269.4c0,.3,7,.6,15.5.6s15.5-.2,15.5-.5-3.5-6.6-7.9-14q-.8-1.35-7.9-13.5l-7.6,13.4Q411.995,269.095,412,269.4Z" transform="translate(-412 -242)" fill="#2c2f33" opacity="0.57"/>
          <g id="Group_42" data-name="Group 42">
            <path id="Path_41" data-name="Path 41" d="M412,269.4c0,.3,7,.6,15.5.6s15.5-.2,15.5-.5-3.5-6.6-7.9-14q-.8-1.35-7.9-13.5l-7.6,13.4Q411.995,269.095,412,269.4Z" transform="translate(-412 -242)" fill="#2c2f33" opacity="0.57"/>
          </g>
        </g>
        <g id="Group_45" data-name="Group 45" transform="translate(52 293.071)">
          <path id="Path_42" data-name="Path 42" d="M72,283H52v5H77V263H72v20Z" transform="translate(-52 -263)" fill="#2c2f33" opacity="0.57"/>
          <g id="Group_44" data-name="Group 44">
            <path id="Path_43" data-name="Path 43" d="M72,283H52v5H77V263H72v20Z" transform="translate(-52 -263)" fill="#2c2f33" opacity="0.57"/>
          </g>
        </g>
        <g id="Group_47" data-name="Group 47" transform="translate(320.917 309.398)">
          <path id="Path_44" data-name="Path 44" d="M288.3,296.7c1.6,1.6,2.1,1.4,8.6-5.1q.705-.69,7-6.9l6.5,6.8c6.5,6.7,6.7,6.8,8.7,5,2-1.9,1.9-1.9-6.3-10.2-4.5-4.6-8.5-8.3-8.8-8.3s-4.3,3.8-9,8.5C287,294.5,286.6,295.1,288.3,296.7Z" transform="translate(-287.485 -278)" fill="#2c2f33" opacity="0.57"/>
          <g id="Group_46" data-name="Group 46">
            <path id="Path_45" data-name="Path 45" d="M288.3,296.7c1.6,1.6,2.1,1.4,8.6-5.1q.705-.69,7-6.9l6.5,6.8c6.5,6.7,6.7,6.8,8.7,5,2-1.9,1.9-1.9-6.3-10.2-4.5-4.6-8.5-8.3-8.8-8.3s-4.3,3.8-9,8.5C287,294.5,286.6,295.1,288.3,296.7Z" transform="translate(-287.485 -278)" fill="#2c2f33" opacity="0.57"/>
          </g>
        </g>
        <g id="Group_49" data-name="Group 49" transform="translate(208.537 355.925)">
          <path id="Path_46" data-name="Path 46" d="M186.1,333.6c1.8,2.1,3.2,1.6,6-2.2q.27-.345,2.7-3.5l4,5.1,4,5,4.1-4.8,4.1-4.7,4,4.5,4,4.5,4-4.5,4-4.5q2.61,2.97,2.9,3.3c2.5,2.9,3.2,3.2,5,2.2,2.4-1.3,2.3-1.5-3.3-8.5-2.2-2.8-4.1-5.2-4.3-5.4-.2-.3-1.1.5-1.9,1.8-.9,1.2-2.7,3.4-4,4.9l-2.4,2.7-4.4-5c-2.5-2.8-4.6-4.6-4.6-4,0,.5-1.6,2.8-3.5,5q-.345.4-3.5,4l-4.3-4.8-4.2-4.8-4.7,6.2Q185.3,332.6,186.1,333.6Z" transform="translate(-185.98 -319.9)" fill="#2c2f33" opacity="0.57"/>
          <g id="Group_48" data-name="Group 48">
            <path id="Path_47" data-name="Path 47" d="M186.1,333.6c1.8,2.1,3.2,1.6,6-2.2q.27-.345,2.7-3.5l4,5.1,4,5,4.1-4.8,4.1-4.7,4,4.5,4,4.5,4-4.5,4-4.5q2.61,2.97,2.9,3.3c2.5,2.9,3.2,3.2,5,2.2,2.4-1.3,2.3-1.5-3.3-8.5-2.2-2.8-4.1-5.2-4.3-5.4-.2-.3-1.1.5-1.9,1.8-.9,1.2-2.7,3.4-4,4.9l-2.4,2.7-4.4-5c-2.5-2.8-4.6-4.6-4.6-4,0,.5-1.6,2.8-3.5,5q-.345.4-3.5,4l-4.3-4.8-4.2-4.8-4.7,6.2Q185.3,332.6,186.1,333.6Z" transform="translate(-185.98 -319.9)" fill="#2c2f33" opacity="0.57"/>
          </g>
        </g>
        <g id="Group_51" data-name="Group 51" transform="translate(370.104 384.703)">
          <path id="Path_48" data-name="Path 48" d="M332,377c1.98-1.14,3.08-1.77,3.3-1.9,1.7-1,7.8-4.6,13.5-7.8,5.6-3.3,10.2-6.2,10.2-6.5,0-.4-4.6-3.3-10.2-6.5-5.7-3.3-11.8-6.8-13.5-7.8-.22-.13-1.32-.76-3.3-1.9V377Z" transform="translate(-332 -344.6)" fill="#2c2f33" opacity="0.57"/>
          <g id="Group_50" data-name="Group 50">
            <path id="Path_49" data-name="Path 49" d="M332,377c1.98-1.14,3.08-1.77,3.3-1.9,1.7-1,7.8-4.6,13.5-7.8,5.6-3.3,10.2-6.2,10.2-6.5,0-.4-4.6-3.3-10.2-6.5-5.7-3.3-11.8-6.8-13.5-7.8-.22-.13-1.32-.76-3.3-1.9V377Z" transform="translate(-332 -344.6)" fill="#2c2f33" opacity="0.57"/>
          </g>
        </g>
        <g id="Group_53" data-name="Group 53" transform="translate(51.21 385.899)">
          <path id="Path_50" data-name="Path 50" d="M68.14,346.56l1.75.61,1.61.84,1.46,1.04,1.31,1.21,1.13,1.37.96,1.49.76,1.6.56,1.69.34,1.73.12,1.77-.13,1.78-.37,1.76L77,365.17l-.91,1.66L74.9,368.4l-.65.7-.67.64-.68.6-.71.54-.73.48-.75.44-.77.38-.78.33-.8.27-.81.22-.83.16-.84.11-.86.06h-.86l-.88-.05-.88-.11-.9-.17-1.19-.33-1.13-.41-1.06-.49-1-.57-.93-.65-.86-.72-.78-.78-.71-.85-.63-.91-.55-.97-.47-1.01-.38-1.07-.29-1.11-.2-1.16-.1-1.19-.01-1.22.09-1.26.12-.82.18-.82.25-.82.3-.82.35-.81.4-.79.44-.78.49-.75.52-.72.56-.69.59-.65.62-.61.64-.56.67-.51.68-.45.69-.38.7-.32.21-.09.22-.08.25-.08.26-.08.27-.08.29-.07.29-.07.31-.06.3-.06.32-.05.31-.04.31-.04.31-.04.3-.02.29-.02.29-.02h.27l1.98.09Zm-5.5,4.83-.92.38-.92.54-.93.71-.97.88-1.47,1.8-.93,1.89-.43,1.91.05,1.87.49,1.75.92,1.59,1.32,1.34,1.68,1.04,2.03.67,2.34.24.88-.02.78-.06.7-.1.63-.16.57-.21.53-.27.49-.34.48-.4.47-.48.47-.56.95-1.41.68-1.47.41-1.48.16-1.48-.09-1.44-.34-1.37-.58-1.27-.83-1.16-1.06-1-1.3-.82-1.21-.58-1.13-.43-1.05-.26-.99-.11-.96.05Z" transform="translate(-51.21 -346.1)" fill="#2c2f33" opacity="0.57"/>
          <g id="Group_52" data-name="Group 52">
            <path id="Path_51" data-name="Path 51" d="M68.14,346.56l1.75.61,1.61.84,1.46,1.04,1.31,1.21,1.13,1.37.96,1.49.76,1.6.56,1.69.34,1.73.12,1.77-.13,1.78-.37,1.76L77,365.17l-.91,1.66L74.9,368.4l-.65.7-.67.64-.68.6-.71.54-.73.48-.75.44-.77.38-.78.33-.8.27-.81.22-.83.16-.84.11-.86.06h-.86l-.88-.05-.88-.11-.9-.17-1.19-.33-1.13-.41-1.06-.49-1-.57-.93-.65-.86-.72-.78-.78-.71-.85-.63-.91-.55-.97-.47-1.01-.38-1.07-.29-1.11-.2-1.16-.1-1.19-.01-1.22.09-1.26.12-.82.18-.82.25-.82.3-.82.35-.81.4-.79.44-.78.49-.75.52-.72.56-.69.59-.65.62-.61.64-.56.67-.51.68-.45.69-.38.7-.32.21-.09.22-.08.25-.08.26-.08.27-.08.29-.07.29-.07.31-.06.3-.06.32-.05.31-.04.31-.04.31-.04.3-.02.29-.02.29-.02h.27l1.98.09Zm-5.5,4.83-.92.38-.92.54-.93.71-.97.88-1.47,1.8-.93,1.89-.43,1.91.05,1.87.49,1.75.92,1.59,1.32,1.34,1.68,1.04,2.03.67,2.34.24.88-.02.78-.06.7-.1.63-.16.57-.21.53-.27.49-.34.48-.4.47-.48.47-.56.95-1.41.68-1.47.41-1.48.16-1.48-.09-1.44-.34-1.37-.58-1.27-.83-1.16-1.06-1-1.3-.82-1.21-.58-1.13-.43-1.05-.26-.99-.11-.96.05Z" transform="translate(-51.21 -346.1)" fill="#2c2f33" opacity="0.57"/>
          </g>
        </g>
        <g id="Group_55" data-name="Group 55" transform="translate(134.45 422.895)">
          <path id="Path_52" data-name="Path 52" d="M120.7,396.3c1.6,1.6,2.1,1.4,8.5-5q.675-.675,6.8-6.7,6.21,6.12,6.9,6.8c6,5.9,7.2,6.8,8.5,5.6a4.044,4.044,0,0,0,1.6-2.4c0-.6-3.7-4.8-8.3-9.4l-8.2-8.2-8.8,8.8Q119.1,394.605,120.7,396.3Z" transform="translate(-120.448 -377)" fill="#2c2f33" opacity="0.57"/>
          <g id="Group_54" data-name="Group 54">
            <path id="Path_53" data-name="Path 53" d="M120.7,396.3c1.6,1.6,2.1,1.4,8.5-5q.675-.675,6.8-6.7,6.21,6.12,6.9,6.8c6,5.9,7.2,6.8,8.5,5.6a4.044,4.044,0,0,0,1.6-2.4c0-.6-3.7-4.8-8.3-9.4l-8.2-8.2-8.8,8.8Q119.1,394.605,120.7,396.3Z" transform="translate(-120.448 -377)" fill="#2c2f33" opacity="0.57"/>
          </g>
        </g>
        <g id="Group_57" data-name="Group 57" transform="translate(293.178 427.25)">
          <path id="Path_54" data-name="Path 54" d="M277.9,377.28l.62.13.64.18.67.22.71.27.76.32,1.99,1.01,1.73,1.22,1.46,1.39,1.21,1.54.95,1.66.68,1.75.42,1.82.16,1.85-.1,1.86-.37,1.84-.63,1.79-.89,1.72-1.16,1.61-1.42,1.48-1.68,1.33-1.95,1.13-.99.43-.98.34-.96.26-.96.18-.95.1h-.94l-.93-.07-.93-.17-.92-.24-.91-.34-.91-.43-.91-.51-.91-.6-.9-.69-.9-.79-.9-.87-.59-.59-.52-.55-.47-.52-.41-.48-.35-.47-.31-.45-.27-.44-.22-.45-.18-.46-.15-.47-.11-.5-.09-.53-.06-.57-.04-.61-.02-.68-.01-.73.03-1.12.09-1.08.14-1.03.21-.99.26-.94.32-.9.39-.86.44-.81.49-.76.56-.72.61-.68.68-.63.73-.59.79-.54.85-.5.91-.45.87-.39.8-.34.75-.29.7-.24.67-.19.63-.15.61-.1.6-.05h.58l.59.04Zm-4.75,5.84-1.29.75-1.2,1.03-1.06,1.3-1.25,2.57-.31,2.53.5,2.39,1.16,2.12,1.68,1.74,2.05,1.25,2.29.64,2.39-.07,2.34-.91,2.15-1.86.81-1.05.64-1.08.46-1.12.29-1.14.11-1.15-.06-1.14-.25-1.13-.42-1.11-.6-1.06-.78-1.02-1.25-1.18-1.34-.91-1.4-.63-1.43-.35-1.44-.08-1.42.2Z" transform="translate(-263 -377.15)" fill="#2c2f33" opacity="0.57"/>
          <g id="Group_56" data-name="Group 56">
            <path id="Path_55" data-name="Path 55" d="M277.9,377.28l.62.13.64.18.67.22.71.27.76.32,1.99,1.01,1.73,1.22,1.46,1.39,1.21,1.54.95,1.66.68,1.75.42,1.82.16,1.85-.1,1.86-.37,1.84-.63,1.79-.89,1.72-1.16,1.61-1.42,1.48-1.68,1.33-1.95,1.13-.99.43-.98.34-.96.26-.96.18-.95.1h-.94l-.93-.07-.93-.17-.92-.24-.91-.34-.91-.43-.91-.51-.91-.6-.9-.69-.9-.79-.9-.87-.59-.59-.52-.55-.47-.52-.41-.48-.35-.47-.31-.45-.27-.44-.22-.45-.18-.46-.15-.47-.11-.5-.09-.53-.06-.57-.04-.61-.02-.68-.01-.73.03-1.12.09-1.08.14-1.03.21-.99.26-.94.32-.9.39-.86.44-.81.49-.76.56-.72.61-.68.68-.63.73-.59.79-.54.85-.5.91-.45.87-.39.8-.34.75-.29.7-.24.67-.19.63-.15.61-.1.6-.05h.58l.59.04Zm-4.75,5.84-1.29.75-1.2,1.03-1.06,1.3-1.25,2.57-.31,2.53.5,2.39,1.16,2.12,1.68,1.74,2.05,1.25,2.29.64,2.39-.07,2.34-.91,2.15-1.86.81-1.05.64-1.08.46-1.12.29-1.14.11-1.15-.06-1.14-.25-1.13-.42-1.11-.6-1.06-.78-1.02-1.25-1.18-1.34-.91-1.4-.63-1.43-.35-1.44-.08-1.42.2Z" transform="translate(-263 -377.15)" fill="#2c2f33" opacity="0.57"/>
          </g>
        </g>
        <g id="Group_59" data-name="Group 59" transform="translate(463 432.311)">
          <path id="Path_56" data-name="Path 56" d="M415.4,387.6c3.8.9,6.1,4.1,6.1,8.4s-2.3,7.5-6.1,8.4c-1.8.5-2.4,1.3-2.4,3.2,0,2.3.3,2.5,2.8,1.9,14.7-3.6,14.7-23.4,0-27-2.5-.6-2.8-.4-2.8,1.9C413,386.3,413.6,387.1,415.4,387.6Z" transform="translate(-413 -382.211)" fill="#2c2f33" opacity="0.57"/>
          <g id="Group_58" data-name="Group 58">
            <path id="Path_57" data-name="Path 57" d="M415.4,387.6c3.8.9,6.1,4.1,6.1,8.4s-2.3,7.5-6.1,8.4c-1.8.5-2.4,1.3-2.4,3.2,0,2.3.3,2.5,2.8,1.9,14.7-3.6,14.7-23.4,0-27-2.5-.6-2.8-.4-2.8,1.9C413,386.3,413.6,387.1,415.4,387.6Z" transform="translate(-413 -382.211)" fill="#2c2f33" opacity="0.57"/>
          </g>
        </g>
        <g id="Group_61" data-name="Group 61" transform="translate(221.91 459.1)">
          <path id="Path_58" data-name="Path 58" d="M205.6,415.7q.345.285,3.5,2.8-4.32,3.87-4.8,4.3c-4.2,3.7-4.6,4.4-3.2,5.5.8.6,3,2.4,4.9,3.9q.345.27,3.4,2.7c-1.44,1.14-2.24,1.77-2.4,1.9-1.4,1.1-3.6,2.9-5,4.1-.17.14-1,.84-2.5,2.1l4,3.4c3.1,2.8,4.9,3.5,8,3.5h4l-4-3.5-4-3.5,4-3.4a23.63,23.63,0,0,1,4.8-3.5c1.7-.1.4-1.9-3.8-5-2.5-1.9-4.5-3.7-4.5-4.2,0-.4,2-2.2,4.5-4a28.073,28.073,0,0,0,4.5-3.9c0-.6-11.4-9.9-12.2-9.9a5.515,5.515,0,0,0-1.5,2C202.2,412.7,202.4,413.3,205.6,415.7Z" transform="translate(-199.5 -409)" fill="#2c2f33" opacity="0.57"/>
          <g id="Group_60" data-name="Group 60">
            <path id="Path_59" data-name="Path 59" d="M205.6,415.7q.345.285,3.5,2.8-4.32,3.87-4.8,4.3c-4.2,3.7-4.6,4.4-3.2,5.5.8.6,3,2.4,4.9,3.9q.345.27,3.4,2.7c-1.44,1.14-2.24,1.77-2.4,1.9-1.4,1.1-3.6,2.9-5,4.1-.17.14-1,.84-2.5,2.1l4,3.4c3.1,2.8,4.9,3.5,8,3.5h4l-4-3.5-4-3.5,4-3.4a23.63,23.63,0,0,1,4.8-3.5c1.7-.1.4-1.9-3.8-5-2.5-1.9-4.5-3.7-4.5-4.2,0-.4,2-2.2,4.5-4a28.073,28.073,0,0,0,4.5-3.9c0-.6-11.4-9.9-12.2-9.9a5.515,5.515,0,0,0-1.5,2C202.2,412.7,202.4,413.3,205.6,415.7Z" transform="translate(-199.5 -409)" fill="#2c2f33" opacity="0.57"/>
          </g>
        </g>
        <g id="Group_63" data-name="Group 63" transform="translate(33 462.1)">
          <path id="Path_60" data-name="Path 60" d="M37.8,422.3A13.986,13.986,0,0,0,50.1,425c7.3-2,13.6-13,7.4-13-1.8,0-2.5.5-2.5,1.8,0,3.1-4.2,6.2-8.4,6.2-3.9,0-8.6-3.5-8.6-6.5,0-.9-.9-1.5-2.5-1.5s-2.5.6-2.5,1.5C33,415.7,35.4,420.2,37.8,422.3Z" transform="translate(-33 -412)" fill="#2c2f33" opacity="0.57"/>
          <g id="Group_62" data-name="Group 62">
            <path id="Path_61" data-name="Path 61" d="M37.8,422.3A13.986,13.986,0,0,0,50.1,425c7.3-2,13.6-13,7.4-13-1.8,0-2.5.5-2.5,1.8,0,3.1-4.2,6.2-8.4,6.2-3.9,0-8.6-3.5-8.6-6.5,0-.9-.9-1.5-2.5-1.5s-2.5.6-2.5,1.5C33,415.7,35.4,420.2,37.8,422.3Z" transform="translate(-33 -412)" fill="#2c2f33" opacity="0.57"/>
          </g>
        </g>
      </g>
    </g>
  </g>
</svg>
